<svg width="73" height="136" viewBox="0 0 73 136" fill="none" xmlns="http://www.w3.org/2000/svg">
<rect width="73" height="136" fill="#E5E5E5"/>
<g id="nailpolish 1" clip-path="url(#clip0)">
<g id="layer1">
<path id="rect29531" d="M72.6659 -0.133583H0.0913295C0.0408886 -0.133583 0 5.6438 0 12.7705V122.147C0 129.274 0.0408886 135.051 0.0913295 135.051H72.6659C72.7164 135.051 72.7573 129.274 72.7573 122.147V12.7705C72.7573 5.6438 72.7164 -0.133583 72.6659 -0.133583Z" fill="#A6E4ED"/>
<path id="rect29584" d="M72.6659 0H0.0913295C0.0408886 0 0 5.77167 0 12.8914V122.16C0 129.279 0.0408886 135.051 0.0913295 135.051H72.6659C72.7164 135.051 72.7573 129.279 72.7573 122.16V12.8914C72.7573 5.77167 72.7164 0 72.6659 0Z" fill="url(#paint0_radial)"/>
<g id="g29607">
<path id="rect29580" d="M59.5893 25.0904H48.5743C48.4735 25.0904 48.3919 27.7858 48.3919 31.1108V31.4118C48.3919 34.7367 48.4735 37.4322 48.5743 37.4322H59.5893C59.69 37.4322 59.7717 34.7367 59.7717 31.4118V31.1108C59.7717 27.7858 59.69 25.0904 59.5893 25.0904Z" fill="#534545" stroke="black" stroke-width="1.15833" stroke-linecap="round" stroke-linejoin="round"/>
<path id="path29568" fill-rule="evenodd" clip-rule="evenodd" d="M42.2857 36.3786C35.6513 43.4452 41.5918 63.9217 41.5918 63.9217L67.4045 64.3733C67.4045 64.3733 73.919 43.5305 67.2657 36.3786C60.6123 29.2267 48.92 29.3119 42.2857 36.3786Z" fill="#E84056" stroke="black" stroke-width="1.15833" stroke-linecap="round" stroke-linejoin="round"/>
</g>
<g id="lak">
<path id="rect29574" d="M26.6051 28.3686L24.5418 27.993C24.4376 27.974 23.612 31.8101 22.6978 36.5611C21.7837 41.312 21.127 45.1788 21.2312 45.1978L23.2946 45.5733C23.3988 45.5923 24.2244 41.7563 25.1386 37.0053C26.0527 32.2543 26.7094 28.3875 26.6051 28.3686Z" fill="#534545" stroke="black" stroke-width="1.0949" stroke-linecap="round" stroke-linejoin="round"/>
<path id="cetka" fill-rule="evenodd" clip-rule="evenodd" d="M21.4018 44.9242L19.965 49.3531L19.1814 54.1852L20.2738 49.2672L19.8964 55.026L21.0591 48.9837C21.0591 48.9837 21.0706 56.5189 21.1762 55.9696C21.2819 55.4203 21.9153 49.8502 21.9153 49.8502L21.8203 55.6604L22.921 49.1805L22.8789 54.716L23.5477 49.721L23.5734 47.3093L22.4785 45.4045L21.4018 44.9242Z" fill="black" stroke="black" stroke-width="0.378476"/>
<path id="rect29582" d="M35.4366 8.00795L24.5845 6.03271C24.4852 6.01464 23.5483 10.4508 22.4919 15.9412L22.3962 16.4383C21.3398 21.9287 20.5638 26.3941 20.663 26.4122L31.5152 28.3875C31.6145 28.4055 32.5513 23.9693 33.6078 18.4789L33.7034 17.9819C34.7599 12.4915 35.5359 8.02602 35.4366 8.00795Z" fill="#534545" stroke="black" stroke-width="1.50311" stroke-linecap="round" stroke-linejoin="round"/>
</g>
</g>
</g>
<defs>
<radialGradient id="paint0_radial" cx="0" cy="0" r="1" gradientUnits="userSpaceOnUse" gradientTransform="translate(36.3786 67.5255) scale(36.3786 67.5255)">
<stop stop-color="#CFF0F6"/>
<stop offset="1" stop-color="#CFF0F6" stop-opacity="0"/>
</radialGradient>
<clipPath id="clip0">
<rect width="72.7573" height="135.051" fill="white"/>
</clipPath>
</defs>
</svg>
